<svg id="Layer_1" data-name="Layer 1" xmlns="http://www.w3.org/2000/svg" viewBox="0 0 512 512"><title>butler</title><circle cx="256" cy="256" r="256" fill="#fdf3d3"/><g id="butler"><path d="M207,326H184.64a2.83,2.83,0,0,0-2,.83,2.78,2.78,0,0,0-.81,2v65.1a2.79,2.79,0,0,0,2.77,2.8H207a2.76,2.76,0,0,0,2-.83,2.78,2.78,0,0,0,.82-2V328.8A2.8,2.8,0,0,0,207,326Z" fill="#6e5444"/><path d="M329.31,326.83a2.75,2.75,0,0,0-2-.83H305a2.81,2.81,0,0,0-2.79,2.8v65.1a2.81,2.81,0,0,0,.82,2,2.78,2.78,0,0,0,2,.83h22.31a2.72,2.72,0,0,0,2-.83,2.79,2.79,0,0,0,.83-2V328.8A2.79,2.79,0,0,0,329.31,326.83Z" fill="#6e5444"/><path d="M226.49,127.7a29.7,29.7,0,0,0,59.39,0,30.19,30.19,0,0,0-.92-7.25H227.42A29.39,29.39,0,0,0,226.49,127.7Z" fill="#6e5444"/><polygon points="283.81 113.67 290.52 98.28 254.45 84.03 220.81 99.74 227.56 113.67 283.81 113.67" fill="#6e5444"/><path d="M301.85,304.44s27.33,0,27.33,0V206.87c0-1.28-.06-2.53-.16-3.78,0-.4-.08-.8-.13-1.18-.08-.85-.19-1.7-.33-2.53-.06-.44-.14-.88-.22-1.32-.15-.79-.32-1.57-.51-2.34-.1-.4-.2-.83-.31-1.22-.24-.9-.52-1.76-.83-2.62-.08-.27-.16-.54-.26-.8-.4-1.08-.84-2.14-1.32-3.18-.15-.32-.32-.64-.48-1-.36-.7-.72-1.41-1.11-2.1-.22-.38-.46-.75-.68-1.14-.39-.61-.78-1.19-1.18-1.78-.26-.37-.51-.72-.78-1.08-.45-.6-.93-1.18-1.41-1.76-.24-.29-.48-.58-.73-.86-.75-.81-1.51-1.59-2.32-2.34-.2-.18-.41-.34-.63-.54-.63-.55-1.27-1.07-1.94-1.6l-1-.73c-.58-.41-1.19-.81-1.8-1.17-.37-.23-.74-.46-1.14-.67-.63-.35-1.29-.68-2-1-.36-.18-.73-.36-1.11-.53-.91-.4-1.85-.76-2.82-1.08l-.39-.16A37.68,37.68,0,0,0,292,166.6h-20.6l-11.51,9.87,8.47,22.71L257,223.77l-10.14-24.2,7.71-23.1-10.85-9.85H226.17c-37.38,0-38.93,40.32-38.93,40.32l-.17,97.49h26.17v-88h3.29V428h36.94V304.33H261V428h37V216.46h3.85v88Z" fill="#6e5444"/></g></svg>