<svg id="Layer_1" data-name="Layer 1" xmlns="http://www.w3.org/2000/svg" viewBox="0 0 512 512"><title>passport</title><path d="M512,256c0,141.39-114.61,256-256,256S0,397.39,0,256,114.61,0,256,0,512,114.61,512,256Z" fill="#fdf3d3"/><g id="passport"><path d="M370,379.86a29.73,29.73,0,0,1-29.74,29.74H171.76A29.72,29.72,0,0,1,142,379.86V132.13a29.72,29.72,0,0,1,29.73-29.73H340.22A29.73,29.73,0,0,1,370,132.13Z" fill="#6e5444"/><path d="M163.55,329.48a35.9,35.9,0,0,1,8-.78c3.84,0,6.68,1.06,8.51,3.07a12.27,12.27,0,0,1,2.82,8.31c0,3.57-.84,6.51-2.48,8.53-2.1,2.72-5.39,4-9.11,4a11.35,11.35,0,0,1-2.56-.23v14.17h-5.22ZM168.78,347a7.82,7.82,0,0,0,2.56.3c3.93,0,6.32-2.51,6.32-6.92,0-4.18-2.22-6.41-5.86-6.41a12.17,12.17,0,0,0-3,.32Z" fill="#fdf3d3"/><path d="M190.22,355.91l-2.48,10.65H182.3L191.53,329h6.71l9.37,37.59H202l-2.62-10.65Zm8.25-5.18-2.26-9.26c-.55-2.27-1-4.85-1.46-7h-.08c-.44,2.16-.86,4.79-1.38,7l-2.22,9.26Z" fill="#fdf3d3"/><path d="M211.52,359.09a12.14,12.14,0,0,0,7,2.4c3.37,0,5.26-2.06,5.26-5.13,0-2.83-1.44-4.5-5.14-6.24-4.76-2.23-7.77-5.53-7.77-10.92,0-6.14,3.92-10.83,10.18-10.83a12.36,12.36,0,0,1,6.92,1.9l-1.28,5.51a10.11,10.11,0,0,0-5.74-1.77,4.44,4.44,0,0,0-4.79,4.51c0,2.9,1.68,4.23,5.51,6.19,5,2.46,7.45,5.74,7.45,11.15,0,6-3.51,11.32-10.94,11.32a13.86,13.86,0,0,1-7.78-2.4Z" fill="#fdf3d3"/><path d="M233.74,359.09a12.06,12.06,0,0,0,7,2.4c3.37,0,5.24-2.06,5.24-5.13,0-2.83-1.44-4.5-5.11-6.24-4.76-2.23-7.79-5.53-7.79-10.92,0-6.14,3.94-10.83,10.18-10.83a12.36,12.36,0,0,1,6.93,1.9l-1.27,5.51a10.12,10.12,0,0,0-5.72-1.77,4.43,4.43,0,0,0-4.81,4.51c0,2.9,1.68,4.23,5.51,6.19,5,2.46,7.45,5.74,7.45,11.15,0,6-3.51,11.32-11,11.32a14,14,0,0,1-7.79-2.4Z" fill="#fdf3d3"/><path d="M256.08,329.48a35.73,35.73,0,0,1,8-.78c3.86,0,6.69,1.06,8.51,3.07a12.26,12.26,0,0,1,2.83,8.31c0,3.57-.87,6.51-2.49,8.53-2.09,2.72-5.38,4-9.11,4a11.48,11.48,0,0,1-2.58-.23v14.17h-5.2Zm5.2,17.51a8,8,0,0,0,2.58.3c3.93,0,6.32-2.51,6.32-6.92,0-4.18-2.21-6.41-5.85-6.41a12.33,12.33,0,0,0-3,.32Z" fill="#fdf3d3"/><path d="M305.57,347.38c0,12.61-5.87,19.8-13.81,19.8-8.14,0-13.27-8.08-13.27-19.12,0-11.55,5.57-19.69,13.71-19.69C300.59,328.37,305.57,336.67,305.57,347.38Zm-21.52.56c0,7.63,3,13.77,8,13.77s7.95-6.19,7.95-14.05c0-7.09-2.68-13.83-7.95-13.83S284.05,340.19,284.05,347.94Z" fill="#fdf3d3"/><path d="M310.13,329.48a39.2,39.2,0,0,1,7.94-.78c4.15,0,7,.9,8.89,3a11.07,11.07,0,0,1,2.48,7.53c0,4.84-2.52,8.14-5.21,9.41v.19c2.07,1,3.29,3.61,4,7.23.89,4.69,1.68,9,2.27,10.49h-5.44a66.16,66.16,0,0,1-1.92-8.86c-.81-4.92-2.18-6.48-5.18-6.59h-2.66v15.45h-5.2Zm5.2,16.62h3.12c3.56,0,5.78-2.45,5.78-6.2,0-4.12-2.22-6-5.65-6a12.14,12.14,0,0,0-3.26.33Z" fill="#fdf3d3"/><path d="M340.19,334.73H332V329h21.79v5.75h-8.3v31.84h-5.27Z" fill="#fdf3d3"/><path d="M267.11,229.46c2.32,1.69,2.12,5.14,1.54,7.33-.65,2.53-1.93,2.38-3.81,4.39-2.49,2.68-.52,3.15.25,6,.59,2.16-1,3.64-.68,5.56-3.63-.19-5.7.94-7.54,3.73-1.42,2.14-.84,3.55-1.62,5.88-1.64.87-2.67,2.65-4.36,3.56-2.16,1.18-5.48,1.46-7.26,3.11-2.44,2.28-.42,4.74,1,6.9.41.65,3.41,7,1.28,7.07-3.34.19-6.75-.12-8.87-2.92-1.72-2.28-2.39-4.21-2.11-6.66a25.76,25.76,0,0,0-.28-8.48c-.89-3.33-3.08-4.8-2.54-8.69.34-2.38,1.34-4.32,1.41-6.87.11-3.61-3.52-4.72-6.08-6.91s-6-4.65-6.61-8.07c-.49-2.7.58-5.08,1.38-7.48a19,19,0,0,0,.72-7.42c-1.8-.31-3.71,0-5.48-.58a2.56,2.56,0,0,1-1.66-1.57c-.44-.94-1.33-1.7-1.49-2.77a5.42,5.42,0,0,1,0-.75c0-.36-.11-.32-.24-.58-.33-.73-.11-1.1-.84-1.54a18.27,18.27,0,0,0-2-1.18c-2.49-1.09-5.7.25-8.22-.92a19.85,19.85,0,0,1-5.37-4.7c-1.61-2-1.51-4.54-2.83-6.39s-3.69-2.2-4.94-4.56-1.37-4-3.75-6a6,6,0,0,1-1.73-1.91,75.61,75.61,0,0,1,39.52-40.87,3.59,3.59,0,0,1,.71,1.82c0,1.13-1.47,1.68-.68,2.75.62.84,2.31.55,3.21.56.31,1.39-1,1.53-1.65,2.27-1.62.1-6.93-.64-7.71.74-1.85,3.28,4.26,3.06,5.88,2.81,2.43-.33,4.3-1.89,6.59-2.63a15.07,15.07,0,0,1,4.94-.5,7.18,7.18,0,0,1,2.47.12c.51.3.37,1.14.23,1.76-.43,2-1.05,2.84-3.21,3.14-2,.27-4.07.39-5.8,1.91-3.45,3-1,10.74,4.36,8.59-.22-2.22.86-2.71,2.4-3.71s2.93-2.73,4.63-3.76a9,9,0,0,1,5.45-.68c2.34.33,1.58,1.06,3,2.4,1.11,1.05,2.55.95,4,1.81a20.14,20.14,0,0,1,3.93,3.57c1.34,1.36,2.53,3.76.81,5.31-.74.66-2.49,1.47-3.31.73-.57-.48-.21-1.45-.57-2.08a4.11,4.11,0,0,0-1.49-1.49c-1.23-.62-2.47-1.09-3.34.34s1,2.86.16,4.34a2.08,2.08,0,0,1-2,.88c-.42,0-.86,0-1.29,0a5.63,5.63,0,0,1-.61-.05c-.21,0-.47-.18-.66,0s0,.47,0,.74-.28.53-.48.71a6.73,6.73,0,0,1-2.74,1.24,11.4,11.4,0,0,1-1.59.29c-.23,0-.48,0-.71.07a1,1,0,0,0-.56.38s0,0,0,0a1.66,1.66,0,0,0-.44.69,6.29,6.29,0,0,1-.08.77.82.82,0,0,0-.11.27,1.11,1.11,0,0,1,0,.21,6,6,0,0,1-.41.73,3.1,3.1,0,0,1-.63.9c-1.17,1.26-2.92,1.83-4.44,2.54-1.36.64-3,1.47-3.31,3.07-.22,1.05.18,2.16-.18,3.16-.41,1.2-1.43,1.44-1.94,2.41-.63,1.16-1,2.76-2.26,3.43a3.34,3.34,0,0,1-2.44.12,2.86,2.86,0,0,1-2.06-2.09,18.78,18.78,0,0,1-.78-3.72c-6-.27-17.3-.17-14.51,8.88.39,1.29,1.31,3.53,2.31,4.05,1.9,1,4.43-.64,6.38-.76,1.48-.1,5.66-.74,5.23,1.19-.24,1-2.86,2.37-3.8,2.36-.12,2.24,3.65,3.62,5.13,4.8,1.87,1.49,3,2.75,5.63,1.91a31.12,31.12,0,0,1,11.27-1.36c6.14.29,6.62,4.92,9.79,8.94,2.25,2.84,5.7,3.59,9.14,4.72a67.62,67.62,0,0,0,6.92,2.21C264.14,229.26,266,228.64,267.11,229.46Zm25.6-80.26a75.87,75.87,0,0,0-46.81-10c.11.65.18,1.3.24,1.89a9.06,9.06,0,0,1,0,3.27c-.43,1.11-1.51,1.06-2.29,1.94-1.08,1.2-1,3.65-1,5.29,1.43.45,2.75.45,4,1.21a7.82,7.82,0,0,1,2.64,3.53c.94,2,.81,2.18,3.22,2.34,1.8.12,3.08.34,3.95-1.23,2.08-3.81-3.24-5.26-5.12-7.23a3.55,3.55,0,0,1,3.25-6c1.22,4.46,7.71,1.66,10.58,3.77,4,2.92-.36,8.4,1.86,11.68,1,1.47,3.92,1.14,5.13.46,2.52-1.44,1.31-3,2.17-4.92,1.09-2.54,8.7-.85,11.47-1.43A9.82,9.82,0,0,0,292.71,149.2Zm11.35,20.54a5.08,5.08,0,0,1-.4,3c-.48.82-2.33,1.25-2.57,1.91-.81,2.28,3.26.71,4.42,2.55-2.29,1.62-5.06,3.78-7.73,4.48-.72,2.51,2.13,1.51,3.42,1.9,1.91.53,2.78,1.79,5,1.35,3.61-.69,3.68-6.32,7.92-5.64,2.79.44,2.83,3.16,4.58,4.37,1,.7,3,.67,4.79.43a75.31,75.31,0,0,0-16.38-23.79c-.16.09-.32.2-.48.31-1,.7-2.31,2.18-3.29,2.7-1.33.68-3.21-.2-4.52.45a13.42,13.42,0,0,0-2.75,2.61C293.39,170.92,301.69,169.61,304.07,169.74Zm22.14,21.44a21.76,21.76,0,0,1-2.18.11c-3.76,0-4.63-1-7.27-3.29-2.36-2-4.77-3-8-2.11-2.6.69-4.41,3.31-7.49,3-1.21-4.62-7.18,1.86-7.32,4.27-.14,2.76.68,2.65-1.4,4.69-1.22,1.24-3,2.39-3.8,4s-.56,4.72-.83,6.57a22.49,22.49,0,0,0,.18,6.56c.81,6,5.79,6.31,11.16,7.09,1.13.16,2.86.79,4.05.41s.91-1.09,1.71-1.83a7.24,7.24,0,0,1,5.83-1.69c1.61.24,5.5,2.45,5.16,4.46-.26,1.59-3.27,2.71-2.58,4.94,1.14,3.73,6.78,2.59,6.58,6.79a19.92,19.92,0,0,1-1.13,6.14c-.68,1.58-3.33,3-3.62,4.35-.39,1.68,1.68,1.75,2,3.31a10.23,10.23,0,0,0,4.4-.72,75.49,75.49,0,0,0,4.55-57Z" fill="#fdf3d3"/></g></svg>