<svg id="Layer_1" data-name="Layer 1" xmlns="http://www.w3.org/2000/svg" viewBox="0 0 512 512"><title>sailing-boat</title><circle cx="256" cy="256" r="256" fill="#fdf3d3"/><path id="sailing_boat" data-name="sailing boat" d="M312.66,184c-59.35-42.11-107-44.62-107-44.62s58.39,84.42,32.2,170.71c-3-49.31-11.09-120.61-32.2-170.71,16.48,53.22,15.23,170.29-46.12,232.7-1.67-.26-3.18-.48-4.57-.6,2.82,6.41,17.31,25.08,24.46,31,55.28-.19,87.84,16.73,125.64-1a516.28,516.28,0,0,1,49-86.87,57.7,57.7,0,0,0-15.64-4C352.78,290.1,382.19,233.32,312.66,184ZM159.76,372.1c28.69-23.74,47.86-27,60.21-23.42a173.78,173.78,0,0,1-15.88,20.92C182.72,376.31,169,373.59,159.76,372.1Zm73.34-15.49a158.77,158.77,0,0,1-23.88,11.23A141.56,141.56,0,0,0,225.64,351,30.09,30.09,0,0,1,233.1,356.62Zm35.12-23.95a300.55,300.55,0,0,1-28.59,20.08c-.09-4.93-.27-11.1-.52-18.15,15.47-18.81,32.61-37.88,55.72-44,30.07-8,36.44,8.58,37.55,19.46C316.51,309.22,293.47,312.89,268.22,332.67Zm-62.55-193.3c-2.24-2.82-8-21.76-3.92-28.31,5.71-9,26.14-11.49,41.11-5,6.58,2.86,9.43,12.69,9.43,12.69l37,1-26.9,11.86,28.93,10.82s-22.35.19-38-.57c-11.31-.55-13.56-13.56-13.56-13.56S210.8,120.13,205.67,139.37Z" fill="#6e5444"/></svg>