<svg id="Layer_1" data-name="Layer 1" xmlns="http://www.w3.org/2000/svg" viewBox="0 0 512 512"><title>big-ben-london</title><circle cx="256" cy="256" r="256" fill="#fdf3d3"/><path id="big_ben_london" data-name="big ben london" d="M303.57,236.09H208.43l.08-.05V196.65h4v35.7c5.59-5.44,15.47-16.43,20.59-30.3h45.75C284,216,293.94,227,299.52,232.4V196.71h4.05v39.38Zm-25.52-68.73H234V198h44.1ZM208,290.23h97v97H208Zm7,48.48a41.45,41.45,0,1,0,41.45-41.43A41.5,41.5,0,0,0,215.06,338.72ZM331.79,262V413.59H180.22V262h7.94V239.17h4V262h16.22V240.16h95.15V262H319.8V239.17h4V262Zm-22.72,24.16H204V391.27H309.06Zm-48.69,21.45h-4V339H226.61v4h33.76Zm14.7-144.3a105.21,105.21,0,0,1-17.24-47.54h3.54V108.7h-3.72V98.41h-3.27V108.7h-3.75v7.08h3.55a105.28,105.28,0,0,1-17.25,47.54Z" fill="#6e5444"/></svg>